{"title":"Broadchurch 2013 TV serie English Klam","uid":9544222,"size":3263198190,"categoryP":"video","categoryS":"movies","magnet":"?xt=urn:btih:203ea9097972d0b06d643336acf14d6dbdbc0fe3&amp;dn=Broadchurch+2013+TV+serie+English+Klam&amp;tr=udp%3A%2F%2Ftracker.openbittorrent.com%3A80&amp;tr=udp%3A%2F%2Fopen.demonii.com%3A1337&amp;tr=udp%3A%2F%2Ftracker.coppersurfer.tk%3A6969&amp;tr=udp%3A%2F%2Fexodus.desync.com%3A6969","seeders":3,"leechers":0,"uploader":"Klambake","files":-1,"time":1391098125,"description":"With: David Tennant and Olivia Colman.\n\nTerwijl men zich in het kuststadje Broadchurch opmaakt voor het zomerseizoen, wordt de elfjarige Danny Latimer als vermist opgegeven. Tot grote schrik van de hechte gemeenschap, wordt DannyÂ´s ontzielde lichaam niet veel later op een verlaten strand in de buurt gevonden. Rechercheur Ellie Miller ontdekt na terugkomst van vakantie dat de door haar gewenste functie naar buitenstaander Alec Hardy is gegaan. Het nieuwbakken politieduo wordt belast met het onderzoek naar de mysterieuze dood van de elfjarige jongen.\n\nThe murder of a young boy in a small coastal town brings a media frenzy, which threatens to tear the community apart.\n\n--------------------- Dutch Friends 4ever ---------------------\n---------------------------------------------------------------\n- Bezoek ook eens mijn vrienden op: &lt;a href=&quot; http://www.Film-Test.nl&quot; rel=&quot;nofollow&quot; target=&quot;_NEW&quot;&gt; http://www.Film-Test.nl&lt;/a&gt; --\n----- voor mijn Nederlandse Sync. ondertitels ---- en meer ----\n------- http://www.Film-Test.nl ---- Over Films en meer -------\n---------------------------------------------------------------\n\nGeneral:\n\nComplete name                    : BroadchurchPart01.avi\nFormat                           : AVI\nFormat/Info                      : Audio Video Interleave\nFile size                        : 399 MiB\nDuration                         : 46mn 16s\nOverall bit rate                 : 1 206 Kbps\n\nVideo:\n\nFormat                           : MPEG-4 Visual\nFormat profile                   : Simple@L3\nFormat settings, BVOP            : No\nFormat settings, QPel            : No\nFormat settings, GMC             : No warppoints\nFormat settings, Matrix          : Default (H.263)\nCodec ID                         : XVID\nCodec ID/Hint                    : XviD\nDuration                         : 46mn 16s\nBit rate                         : 1 003 Kbps\nWidth                            : 704 pixels\nHeight                           : 396 pixels\nDisplay aspect ratio             : 16:9\nFrame rate                       : 25.000 fps\nColor space                      : YUV\nChroma subsampling               : 4:2:0\nBit depth                        : 8 bits\nScan type                        : Progressive\nCompression mode                 : Lossy\nBits/(Pixel*Frame)               : 0.144\nStream size                      : 332 MiB (83%)\nWriting library                  : XviD 1.1.2 (UTC 2006-11-01)\n\nAudio:\n\nFormat                           : AC-3\nFormat/Info                      : Audio Coding 3\nMode extension                   : CM (complete main)\nCodec ID                         : 2000\nDuration                         : 46mn 16s\nBit rate mode                    : Constant\nBit rate                         : 192 Kbps\nChannel(s)                       : 2 channels\nChannel positions                : Front: L R\nSampling rate                    : 48.0 KHz\nBit depth                        : 16 bits\nCompression mode                 : Lossy\nStream size                      : 63.5 MiB (16%)\nAlignment                        : Aligned on interleaves\nInterleave, duration             : 32 ms (0.80 video frame)\nInterleave, preload duration     : 416 ms\n\n\n","torrent":{"xt":"urn:btih:203ea9097972d0b06d643336acf14d6dbdbc0fe3","amp;dn":"Broadchurch+2013+TV+serie+English+Klam","amp;tr":["udp%3A%2F%2Ftracker.openbittorrent.com%3A80","udp%3A%2F%2Fopen.demonii.com%3A1337","udp%3A%2F%2Ftracker.coppersurfer.tk%3A6969","udp%3A%2F%2Fexodus.desync.com%3A6969"],"infoHash":"203ea9097972d0b06d643336acf14d6dbdbc0fe3","infoHashBuffer":{"type":"Buffer","data":[32,62,169,9,121,114,208,176,109,100,51,54,172,241,77,109,189,188,15,227]},"announce":[],"urlList":[]}}